<svg width="156" height="155" viewBox="0 0 156 155" fill="none" xmlns="http://www.w3.org/2000/svg">
<path fill-rule="evenodd" clip-rule="evenodd" d="M143.728 82.1991C143.428 81.9386 143.214 81.6362 143.098 81.6695C141.091 82.2439 139.107 82.8928 137.098 83.4571C135.33 83.9547 133.639 84.6703 131.893 85.2241C130.952 85.5232 129.98 85.7228 129.031 85.9999C128.329 86.2058 127.622 86.699 126.952 86.6439C126.003 86.5665 125.532 87.3591 124.678 87.4832C123.305 87.6817 121.994 88.3017 120.649 88.7149C118.477 89.3824 116.295 90.0137 114.124 90.6856C112.865 91.0749 111.54 91.3118 110.457 92.2144C110.988 92.2533 111.514 92.217 112.004 92.0671C113.466 91.6199 114.91 91.1142 116.37 90.658C117.078 90.4368 117.808 90.2923 118.521 90.0851C119.285 89.8625 120.041 89.6093 120.8 89.3691C121.56 89.129 122.312 88.8617 123.08 88.6547C124.677 88.2235 126.277 87.8059 127.786 87.1048C128.006 87.0022 128.248 86.9466 128.48 86.8703C129.7 86.469 131.05 86.4671 132.148 85.6806C132.293 85.5772 132.487 85.4524 132.643 85.47C134.027 85.6304 135.274 85.0144 136.465 84.5579C137.697 84.0846 139.176 84.1186 140.162 83.0398C140.855 83.3328 141.374 82.5915 141.901 82.6584C142.589 82.7451 143.013 82.4438 143.728 82.1991ZM124.493 81.5471C123.201 81.7408 121.915 82.0312 120.615 82.1108C115.743 82.4075 110.867 82.655 105.99 82.8794C103.734 82.984 101.492 83.4293 99.2129 83.1146C98.5129 83.0176 97.7736 83.1663 97.058 83.2525C96.3501 83.3386 95.6952 82.8194 94.8914 83.3333C94.4232 83.6331 93.5553 83.2759 92.8676 83.2716C91.7218 83.2635 90.5539 83.2478 89.433 83.3024C86.6075 83.4394 83.7621 82.9593 80.9555 83.5501C80.8286 83.5776 80.6607 83.6268 80.5683 83.5715C79.7606 83.0821 78.9249 83.5293 78.1066 83.4795C77.2892 83.4297 76.469 83.3755 75.6503 83.3779C73.9816 83.3825 72.3009 83.5495 70.646 83.4037C69.5497 83.3078 68.4766 83.4449 67.4019 83.3801C64.8155 83.2249 62.2354 83.0656 59.6391 83.067C58.6294 83.0672 57.567 83.2031 56.6036 83.0066C54.8 82.6382 52.9868 82.8049 51.1843 82.6333C48.6768 82.3947 46.1365 82.4991 43.6305 82.2522C41.2697 82.0195 38.9052 81.8848 36.5446 81.6838C34.4371 81.5027 32.3337 81.2849 30.2278 81.0832C28.4335 80.911 26.6387 80.7328 24.8433 80.5729C24.5622 80.5479 24.2749 80.6072 23.9685 80.629C24.0214 80.8191 24.0301 80.9269 24.0555 80.9317C25.0267 81.0883 25.9996 81.3552 26.9711 81.3505C27.9141 81.3469 28.7598 82.2131 29.7371 81.6138C31.7195 81.7981 33.7016 81.9918 35.6848 82.1664C37.7977 82.3512 39.9094 82.5494 42.0258 82.6829C43.7892 82.7948 45.579 82.6804 47.3215 82.9212C49.8098 83.2655 52.3091 83.2812 54.8022 83.4395C56.8914 83.5723 58.9984 83.4446 61.0857 83.5928C63.6078 83.7716 66.1247 83.92 68.6534 83.8743C69.8636 83.8522 71.0947 83.7509 72.2828 83.9216C73.9257 84.1583 75.5634 83.9616 77.2015 84.0804C78.472 84.1727 79.756 84.0676 81.0286 84.1388C81.2504 84.1506 81.4492 84.602 81.7532 84.964C81.955 84.3624 82.5903 83.9966 83.0702 84.278C84.0507 84.8533 85.0435 84.4068 86.0154 84.5582C86.3997 84.6183 86.8534 84.2009 87.2469 84.2461C88.9497 84.4411 90.6505 84.5704 92.3578 84.4035C92.9095 84.3499 93.4496 84.0333 93.9902 84.0475C94.9101 84.0716 95.9285 84.568 96.7179 84.3042C97.6697 83.9854 98.6367 84.3704 99.5329 83.9328C99.7435 83.8298 100.111 84.1029 100.408 84.1049C100.737 84.1065 101.229 83.8286 101.366 83.963C101.894 84.481 102.541 84.3675 103.007 84.1732C103.623 83.9167 104.332 83.632 104.829 83.8601C105.607 84.2181 106.093 83.4715 106.789 83.6466C107.634 83.8602 108.532 83.7058 109.402 83.7222C110.335 83.7403 111.269 83.3787 112.212 83.2964C114.564 83.0903 116.922 82.9488 119.277 82.7813C120.259 82.7116 121.242 82.6631 122.221 82.5649C123.059 82.4813 123.858 82.2557 124.493 81.5471ZM113.7 92.8264C114.309 93.8281 115.094 93.9293 115.806 93.874C116.45 93.8237 117.057 93.2803 117.738 93.7715C118.278 93.0564 119.032 93.8115 119.604 93.511C120.31 93.1391 120.818 93.8983 121.463 93.7522C121.605 93.2082 121.605 93.2082 123.259 93.1008C124.333 93.03 124.333 93.03 125.236 93.5234C125.518 93.2962 125.803 93.0668 126.123 92.8081C126.158 93.0798 126.182 93.2649 126.247 93.7718C126.5 93.2305 126.636 92.9379 126.815 92.5585C127.249 92.9113 128.045 92.8516 128.312 93.6771C128.338 93.755 129.02 93.6191 129.507 93.5727C129.323 94.3847 129.157 95.126 128.971 95.954C127.752 96.4263 126.447 96.7877 125.053 96.897C123.653 97.0073 122.268 97.3318 120.868 97.4344C119.599 97.5287 118.317 97.4705 117.04 97.4426C115.825 97.417 114.612 97.9032 113.395 97.4664C111.302 98.3559 109.186 97.1104 107.051 97.5496C105.938 97.7786 104.718 97.4346 103.626 96.9895C103.171 96.805 102.794 96.4267 102.382 96.1358L101.643 93.815C101.618 93.697 101.59 93.5793 101.567 93.4602C101.233 91.7121 101.21 91.6698 102.652 90.8752C103.551 90.3796 104.534 90.035 105.499 89.6145C105.838 89.8789 106.185 90.1509 106.652 90.5142C106.666 90.2348 106.625 90.0547 106.692 89.9348C107.143 89.1232 107.667 88.3955 108.768 88.5504C109.405 87.6059 110.594 87.9142 111.434 87.3732C112.242 86.8523 113.174 86.5242 114.053 86.1159C114.275 86.0132 114.506 85.9283 114.752 85.8279C114.631 85.1091 114.082 85.096 113.46 85.1432C111.173 85.3176 108.882 85.4687 106.593 85.6375C104.692 85.7778 102.796 85.7766 100.895 85.6027C100.505 85.5675 100.095 85.8253 99.6919 85.8356C98.2859 85.8731 96.8781 85.8776 95.4715 85.864C94.1294 85.851 92.8058 86.2924 91.4368 85.9073C90.9023 85.7571 90.2528 86.0611 89.6848 85.9705C89.1964 85.8927 88.7907 86.0003 88.3348 86.0481C87.2793 86.1594 86.173 86.1322 85.1342 85.9237C84.6091 85.8188 83.911 86.518 83.5434 85.6434C82.9393 85.7651 82.3396 85.9423 81.7298 85.9979C79.7636 86.1781 77.802 86.0633 75.8371 85.8884C74.6346 85.7806 73.4169 85.8554 72.2057 85.8489C69.7843 85.8348 67.3606 85.8685 64.9401 85.7951C61.7302 85.699 58.5215 85.5399 55.3146 85.3699C52.5625 85.2228 49.8003 85.1292 47.0644 84.8214C43.0414 84.3677 38.9923 84.3098 34.9669 83.8139C31.8325 83.428 28.6764 83.0662 25.5329 82.8308C22.2402 82.5846 18.995 82.0271 15.7144 81.7416C13.5835 81.5555 11.4866 81.0054 9.36186 80.7175C7.53449 80.4689 5.73978 80.0395 3.91022 79.8176C3.68427 79.7907 3.46557 79.7004 3.23498 79.637C3.45157 78.5536 4.24472 78.6588 4.92311 78.6464C5.55712 78.6356 6.19226 78.727 7.28484 78.8064C5.90615 77.9259 4.76777 78.037 3.71228 77.9182C3.12755 77.8523 2.72878 77.7615 2.49912 77.0781C2.77332 76.9635 3.04399 76.8496 3.34197 76.7241C2.99752 76.2391 2.61845 75.7059 2.19381 75.1075C2.62509 74.8999 3.01265 74.8329 3.08574 74.6451C3.16775 74.4316 2.96786 74.1093 2.88373 73.8109C3.34143 73.5937 4.03229 73.9149 4.36484 73.2539C4.41321 73.1574 4.8112 73.1148 4.82115 73.1397C5.19896 74.0652 5.8956 73.1078 6.45309 73.4022C6.7847 73.5771 7.43321 74.022 7.97784 73.4303C8.04817 73.3548 8.64113 73.9034 8.91902 73.8407C9.26377 73.7614 9.52825 73.3805 9.87252 73.8414C9.94551 73.9401 10.1394 74.0843 10.164 74.0637C11.268 73.1883 12.1142 74.3414 13.0892 74.4153C13.5969 74.4544 14.145 74.8333 14.6238 74.3221C15.2261 74.9877 15.9536 73.6301 16.4689 74.3894C16.9654 75.1208 17.8414 73.8509 18.2674 74.8134C18.2966 74.8789 19.0251 74.6148 19.4356 74.5391C19.9273 74.4489 20.2876 75.5302 20.8753 74.7104C21.3811 74.9169 21.9541 75.0337 22.3781 75.3509C23.0318 75.8394 23.5169 75.7988 24.0327 75.1974C24.1357 75.0776 24.3914 74.9842 24.5369 75.0235C24.9444 75.1362 25.3251 75.4329 25.7259 75.451C26.1324 75.4701 26.8295 75.0375 26.9161 75.1556C27.5852 76.0702 28.327 74.9771 29.0471 75.3438C29.1619 75.62 29.3008 75.9544 29.4994 76.4313C30.9285 75.5676 32.5415 76.3342 34.0113 75.7474C34.4211 75.5832 34.8735 75.6298 35.2481 76.0426C36.0127 76.8823 36.8516 77.0549 37.7592 76.1945C37.9182 76.043 38.3315 75.9057 38.4384 75.9927C39.4929 76.8528 40.6679 75.6951 41.7847 76.252C42.341 76.5291 43.1946 75.916 43.7656 76.6463C43.8033 76.6942 44.0726 76.5467 44.2394 76.5108C44.5461 76.4435 44.9141 76.4761 45.1549 76.3153C45.8367 75.8617 46.0251 77.0519 46.7053 76.7048C47.1357 76.4849 47.6801 76.4299 48.1767 76.4135C48.7314 76.395 49.2957 76.5769 49.8453 76.5368C50.4565 76.4929 50.9116 76.7434 51.445 76.9433C51.8785 77.1053 52.7103 76.4513 53.0154 76.6634C53.8328 77.2329 54.5368 76.702 55.2794 76.73C56.0979 76.7598 56.9162 76.8086 57.7356 76.8296C58.2957 76.8445 58.8913 76.596 59.3693 77.1462C59.4295 77.2156 59.7679 76.9895 59.9753 76.9937C60.7774 77.0093 61.6178 76.461 62.3901 77.1662C62.4897 77.2574 62.7959 77.1036 63.0081 77.0957C64.861 77.0264 66.7133 76.9643 68.5655 76.9001C69.1906 77.7278 69.9203 77.0053 70.5952 77.0233C71.9365 77.0605 73.2788 77.0269 74.6205 77.0339C74.734 77.034 74.8531 77.1038 74.9593 77.1596C76.563 78.0032 76.5625 78.0037 78.2409 77.9044C78.6536 78.4218 78.9801 79.1367 79.5251 79.4059C79.8999 79.5915 80.5791 79.1586 81.0825 78.7202C80.5012 78.6306 79.9183 78.5406 78.8545 78.3763C79.6508 77.9944 80.2389 78.2007 80.4221 77.9718C80.8153 77.4799 81.0854 77.9338 81.4072 77.9273C83.7311 77.8798 86.0531 77.7684 88.3761 77.7429C88.9802 77.7368 89.6656 76.995 90.2093 77.8724C91.1736 77.6152 92.3264 78.1813 93.1276 77.2057C93.1653 77.16 93.2265 77.1004 93.2752 77.1016C94.603 77.1366 95.9297 77.1783 97.2574 77.219C97.6975 77.8337 98.321 77.5674 98.8758 77.528C101.194 77.3631 103.517 77.2553 105.811 76.793C106.514 76.6505 107.362 76.3354 107.994 77.1268C108.069 77.2187 108.387 77.1848 108.554 77.1162C108.999 76.9295 109.414 76.5481 109.861 76.5163C110.308 76.4846 110.81 76.9716 111.231 76.8987C112.321 76.7118 113.403 76.4083 114.442 76.026C115.411 75.6696 116.903 75.6612 117.905 76.2053L118.696 75.2939C120.087 75.1459 121.515 75.2337 122.929 75.015C124.35 74.7953 125.81 74.6516 127.239 74.7254C128.314 74.7815 129.31 74.923 130.222 74.2044C130.35 74.1033 130.605 74.17 130.801 74.1495C133.438 73.87 136.077 73.6046 138.711 73.3033C140.423 73.1074 142.109 72.7149 143.84 72.6497C144.054 72.6411 144.26 72.4234 144.457 72.3087L145.39 73.1185C145.667 73.0052 145.991 72.9443 146.22 72.7638C146.891 72.2384 147.523 72.0528 148.427 72.298C149.537 72.5991 149.571 72.4653 149.882 73.549C149.933 73.7234 150.013 73.8896 150.081 74.0592C150.313 74.6432 151.301 74.042 151.379 74.905C151.438 75.5597 151.902 75.6207 152.474 75.7146C153.043 75.8081 153.095 76.1134 153.217 77.3646C152.916 77.6346 152.675 77.8502 152.433 78.0658C152.624 78.1878 152.803 78.372 153.01 78.4141C153.257 78.4645 153.53 78.3935 153.8 78.3743C153.811 78.4794 153.868 78.6114 153.826 78.687C153.457 79.3332 153.197 80.1256 152.652 80.5617C152.169 80.9495 151.338 80.8695 150.708 81.1183C148.494 81.9929 146.287 82.8787 143.995 83.5388C142.754 83.8966 141.602 84.5304 140.281 84.6632C139.895 84.7023 139.556 85.1966 139.169 85.2342C138.791 85.2724 138.376 84.86 138.062 85.4378C137.993 85.5644 137.75 85.617 137.575 85.6616C136.028 86.0586 134.535 86.6583 133 87.0539C131.799 87.3633 130.642 87.7713 129.478 88.1641C127.966 88.6731 126.348 88.8475 124.926 89.6309C124.874 89.6597 124.796 89.6504 124.732 89.6462C124.193 89.6114 123.655 89.5729 123.116 89.5355C122.987 90.27 122.399 90.297 121.831 90.4254C121.299 90.5455 120.804 90.8631 120.27 90.9409C118.663 91.1748 117.187 91.8434 115.635 92.2509C115.046 92.4048 114.468 92.5968 113.7 92.8264Z" fill="#F9ED35"/>
</svg>
