<svg width="128" height="72" viewBox="0 0 128 72" fill="none" xmlns="http://www.w3.org/2000/svg">
<circle opacity="0.1" cx="84" cy="-18" r="84" transform="rotate(90 84 -18)" fill="#10B98F"/>
<g opacity="0.4">
<path d="M100.91 3.93175L80.8917 15.6672" stroke="#0AC98D" stroke-width="5.3676" stroke-miterlimit="10" stroke-linecap="round"/>
<path d="M96.7398 0.0087684L107.726 -0.0669951L102.309 9.47724L96.7398 0.0087684Z" fill="#0AC98D"/>
<path d="M97.1842 19.9255L85.1004 -0.609924" stroke="#0AC98D" stroke-width="5.3676" stroke-miterlimit="10" stroke-linecap="round"/>
</g>
<path d="M46.5232 35.4314C50.9008 29.9572 51.3323 21.2022 46.7421 15.7653C44.9624 13.7419 42.6184 12.2887 40.0069 11.5898C37.49 10.9003 34.8445 10.814 32.2875 11.3379C29.7306 11.8618 27.3352 12.9809 25.2982 14.6034C21.2083 17.9339 19.8888 22.2834 19.3322 27.2543C19.1883 28.5964 17.6312 42.9996 18.0814 42.9996C26.6427 42.9996 37.3803 43.1549 44.422 37.513C45.1953 36.8958 45.8998 36.1979 46.5232 35.4314ZM30.889 30.7836C29.9469 29.86 29.3015 28.6796 29.0347 27.3916C28.7678 26.1036 28.8913 24.7658 29.3896 23.5476C29.8879 22.3293 30.7387 21.2853 31.8342 20.5474C32.9298 19.8096 34.2209 19.4111 35.5444 19.4024C36.8679 19.3938 38.1643 19.7752 39.2695 20.4986C40.3748 21.222 41.2393 22.2548 41.7538 23.4664C42.2683 24.678 42.4096 26.014 42.1599 27.3054C41.9102 28.5968 41.2806 29.7856 40.3508 30.7215C39.1043 31.9762 37.4072 32.6876 35.6329 32.6993C33.8585 32.7109 32.1521 32.0219 30.889 30.7836Z" fill="#8FE5CB"/>
<path opacity="0.1" d="M132 56.5C132 63.4036 126.404 69 119.5 69C112.596 69 107 63.4036 107 56.5C107 49.5964 112.596 44 119.5 44C126.404 44 132 49.5964 132 56.5Z" stroke="#10B98F" stroke-width="6"/>
</svg>
