<svg width="128" height="72" viewBox="0 0 128 72" fill="none" xmlns="http://www.w3.org/2000/svg">
<circle opacity="0.1" cx="84" cy="-18" r="84" transform="rotate(90 84 -18)" fill="#FF773C"/>
<path d="M90.7162 -7.85897C86.9576 -8.90914 82.939 -8.47708 79.4885 -6.65183C76.0379 -4.82658 73.4184 -1.74722 72.1697 1.95164C70.9211 5.65051 71.1384 9.68704 72.7769 13.2294C74.4155 16.7717 77.3504 19.5499 80.9768 20.9914L76.4287 37.3964C76.3099 37.8252 76.3662 38.2837 76.5852 38.6709C76.8043 39.0581 77.1682 39.3423 77.5969 39.4611C78.0256 39.5799 78.484 39.5234 78.8712 39.3041C79.2584 39.0849 79.5427 38.7208 79.6616 38.2919L84.2096 21.887C87.9146 22.4912 91.7125 21.7041 94.8732 19.677C98.0339 17.6499 100.334 14.5258 101.332 10.9056C102.402 7.00871 101.885 2.84719 99.8961 -0.669089C97.9069 -4.18537 94.6064 -6.77038 90.7162 -7.85897ZM98.0956 10.0082C97.4668 12.2743 96.1805 14.3032 94.3992 15.8385C92.6178 17.3737 90.4215 18.3463 88.088 18.6333C85.7545 18.9203 83.3885 18.5088 81.2893 17.4507C79.1901 16.3927 77.4519 14.7358 76.2946 12.6893C75.1372 10.6429 74.6127 8.299 74.7873 5.95395C74.9619 3.60889 75.8277 1.36803 77.2754 -0.48527C78.7231 -2.33857 80.6876 -3.72107 82.9205 -4.45796C85.1533 -5.19484 87.5542 -5.25302 89.8197 -4.62513C91.3296 -4.21768 92.7435 -3.51419 93.9792 -2.55549C95.2149 -1.5968 96.2477 -0.402021 97.0177 0.959445C97.7877 2.32091 98.2795 3.82192 98.4645 5.37531C98.6495 6.92869 98.5241 8.50348 98.0956 10.0082Z" fill="#FFCAB0"/>
<path d="M78.4855 1.20448C76.5265 3.90828 75.7957 7.85669 77.375 11.1308C80.1192 16.8307 88.6436 18.034 90.0898 16.0835C91.0556 14.7928 88.2796 12.9396 87.5635 7.87073C86.7012 1.87107 89.7773 -1.3063 88.1945 -2.76857C86.5382 -4.32078 81.186 -2.51368 78.4855 1.20448Z" fill="#FFE6DA"/>
<path opacity="0.1" d="M132 56.5C132 63.4036 126.404 69 119.5 69C112.596 69 107 63.4036 107 56.5C107 49.5964 112.596 44 119.5 44C126.404 44 132 49.5964 132 56.5Z" stroke="#FF773C" stroke-width="6"/>
<path opacity="0.7" d="M47.9469 52.8047C41.519 27.3242 26.3493 19.2209 21.8091 17.3402C21.7526 15.6414 21.0324 14.0308 19.8006 12.8483C18.5688 11.6658 16.9216 11.004 15.2068 11.0024H3.93366C3.6845 10.9897 3.43534 11.0274 3.20134 11.1132C2.96734 11.199 2.7534 11.331 2.57252 11.5013C2.39163 11.6717 2.2476 11.8767 2.14918 12.1039C2.05076 12.3311 2 12.5758 2 12.8231C2 13.0704 2.05076 13.3151 2.14918 13.5424C2.2476 13.7696 2.39163 13.9746 2.57252 14.1449C2.7534 14.3152 2.96734 14.4473 3.20134 14.5331C3.43534 14.6188 3.6845 14.6565 3.93366 14.6438H4.09823C5.49795 14.6438 6.84041 15.1947 7.83062 16.1752C8.82083 17.1558 9.37776 18.486 9.37905 19.8733V23.3517C9.36831 26.1395 10.0342 28.8889 11.3206 31.368C12.607 33.8472 14.4761 35.9832 16.7703 37.596V51.0296C16.7944 51.4963 16.9985 51.936 17.3404 52.2579C17.6822 52.5797 18.1357 52.7592 18.6072 52.7592C19.0787 52.7592 19.5321 52.5797 19.874 52.2579C20.2158 51.936 20.4199 51.4963 20.4441 51.0296V40.3211C21.2043 41.1997 21.8545 42.1663 22.3802 43.1997C22.3183 43.3773 22.2856 43.5636 22.2834 43.7515V51.0344C22.3076 51.5011 22.5117 51.9408 22.8535 52.2627C23.1953 52.5845 23.6488 52.764 24.1203 52.764C24.5918 52.764 25.0453 52.5845 25.3871 52.2627C25.729 51.9408 25.9331 51.5011 25.9572 51.0344V49.5711C26.8061 49.9521 27.766 50.0133 28.6571 49.743C29.5482 49.4727 30.3092 48.8896 30.7976 48.103L36.4608 54.647C36.8245 55.0713 37.277 55.4121 37.7868 55.6457C38.2967 55.8793 38.8517 56.0002 39.4134 56C39.9395 56.0007 40.4602 55.8952 40.9438 55.6898C41.4273 55.4844 41.8636 55.1836 42.226 54.8055C42.5883 54.4275 42.8692 53.9803 43.0514 53.4911C43.2336 53.0019 43.3133 52.4811 43.2857 51.9603C44.0843 53.1933 44.5054 54.0137 44.52 54.0473C44.7206 54.4509 45.065 54.7664 45.4867 54.9328C45.9084 55.0993 46.3774 55.1049 46.803 54.9486C47.2286 54.7923 47.5806 54.4851 47.791 54.0865C48.0014 53.6878 48.0552 53.226 47.9421 52.7903L47.9469 52.8047ZM39.4957 52.325C39.452 52.3464 39.4023 52.3525 39.3547 52.342C39.3072 52.3315 39.2647 52.3052 39.2343 52.2674L31.7753 43.6651L30.846 40.9544C32.882 41.7363 34.7779 42.8379 36.4608 44.2169L39.6215 52.157C39.6227 52.195 39.6139 52.2326 39.5961 52.2662C39.5783 52.2998 39.5521 52.3283 39.5199 52.3489L39.4957 52.325ZM30.6475 37.0587C24.7229 35.3795 21.9833 30.6106 22.1188 28.4228C22.1672 27.6408 22.5012 27.588 22.7965 27.5401C23.0345 27.5019 23.2627 27.4177 23.4679 27.2922C23.6731 27.1667 23.8514 27.0024 23.9925 26.8086C24.1336 26.6148 24.2349 26.3953 24.2904 26.1627C24.346 25.9302 24.3548 25.689 24.3164 25.4531C24.2779 25.2171 24.1929 24.991 24.0663 24.7876C23.9397 24.5842 23.7739 24.4075 23.5784 24.2676C23.3828 24.1277 23.1614 24.0274 22.9268 23.9723C22.6922 23.9172 22.4489 23.9085 22.2108 23.9466C20.0278 24.2968 18.5902 25.928 18.4499 28.2069C18.232 31.8436 21.2863 36.6317 26.3832 39.2704L28.1983 44.5719L27.5836 46.2703L27.3513 46.1167C25.5797 38.9682 21.1605 35.9792 20.9717 35.8545C20.9083 35.8131 20.8419 35.7762 20.7732 35.7441C20.4054 35.557 20.052 35.3555 19.7035 35.1492C19.6522 35.1113 19.5988 35.0761 19.5438 35.0437C17.5501 33.8018 15.9081 32.0773 14.7725 30.0326C13.6369 27.988 13.0451 25.6904 13.0529 23.3565V19.8781C13.055 17.9953 12.4457 16.1617 11.3152 14.6487H15.1875C15.9604 14.6486 16.7021 14.951 17.2514 15.49C17.8006 16.029 18.1131 16.7612 18.1207 17.5273V18.578C18.1208 18.9675 18.2469 19.3468 18.4803 19.6602C18.7138 19.9737 19.0423 20.2047 19.4179 20.3195C19.5728 20.3675 32.7192 24.5895 40.8413 43.1758C38.1598 40.6234 34.7473 38.2197 30.6475 37.0587Z" fill="#FFB996"/>
</svg>
