<svg width="92" height="93" viewBox="0 0 92 93" fill="none" xmlns="http://www.w3.org/2000/svg">
<circle cx="46" cy="46" r="32" fill="#E8F8F4"/>
<path d="M35.1213 42.0547C36.7775 42.0547 38.0939 42.5195 39.0705 43.4492C40.0548 44.3789 40.547 45.6523 40.547 47.2695C40.547 49.1836 39.9572 50.6562 38.7775 51.6875C37.5978 52.7188 35.9103 53.2344 33.715 53.2344C31.8088 53.2344 30.2697 52.9258 29.0978 52.3086V49.1797C29.715 49.5078 30.4338 49.7773 31.2541 49.9883C32.0744 50.1914 32.8517 50.293 33.5861 50.293C35.797 50.293 36.9025 49.3867 36.9025 47.5742C36.9025 45.8477 35.758 44.9844 33.4689 44.9844C33.0548 44.9844 32.5978 45.0273 32.0978 45.1133C31.5978 45.1914 31.1916 45.2773 30.8791 45.3711L29.4377 44.5977L30.0822 35.8672H39.3752V38.9375H33.258L32.9416 42.3008L33.3517 42.2188C33.8283 42.1094 34.4181 42.0547 35.1213 42.0547ZM52.8815 44.4336C52.8815 47.4258 52.3893 49.6406 51.4049 51.0781C50.4283 52.5156 48.9205 53.2344 46.8815 53.2344C44.9049 53.2344 43.4127 52.4922 42.4049 51.0078C41.4049 49.5234 40.9049 47.332 40.9049 44.4336C40.9049 41.4102 41.3932 39.1836 42.3697 37.7539C43.3463 36.3164 44.8502 35.5977 46.8815 35.5977C48.858 35.5977 50.3502 36.3477 51.358 37.8477C52.3736 39.3477 52.8815 41.543 52.8815 44.4336ZM44.5026 44.4336C44.5026 46.5352 44.6822 48.043 45.0416 48.957C45.4088 49.8633 46.0221 50.3164 46.8815 50.3164C47.7252 50.3164 48.3346 49.8555 48.7096 48.9336C49.0846 48.0117 49.2721 46.5117 49.2721 44.4336C49.2721 42.332 49.0807 40.8242 48.6979 39.9102C48.3229 38.9883 47.7174 38.5273 46.8815 38.5273C46.0299 38.5273 45.4205 38.9883 45.0533 39.9102C44.6861 40.8242 44.5026 42.332 44.5026 44.4336ZM57.3947 45.8571C57.3947 46.4477 57.4458 46.8895 57.5481 47.1825C57.6551 47.4708 57.8248 47.615 58.0573 47.615C58.5037 47.615 58.727 47.029 58.727 45.8571C58.727 44.6946 58.5037 44.1133 58.0573 44.1133C57.8248 44.1133 57.6551 44.2574 57.5481 44.5458C57.4458 44.8294 57.3947 45.2666 57.3947 45.8571ZM60.4848 45.8432C60.4848 46.9128 60.2778 47.7173 59.864 48.2567C59.4501 48.7915 58.8432 49.0589 58.0434 49.0589C57.2761 49.0589 56.6832 48.7845 56.2646 48.2358C55.8461 47.6824 55.6368 46.8849 55.6368 45.8432C55.6368 43.718 56.439 42.6554 58.0434 42.6554C58.8293 42.6554 59.4315 42.9321 59.85 43.4855C60.2732 44.0342 60.4848 44.8201 60.4848 45.8432ZM65.2839 42.8019L59.6268 53H57.9527L63.6098 42.8019H65.2839ZM64.5375 49.9308C64.5375 50.5214 64.5887 50.9632 64.691 51.2561C64.7979 51.5445 64.9677 51.6886 65.2002 51.6886C65.6466 51.6886 65.8698 51.1027 65.8698 49.9308C65.8698 48.7682 65.6466 48.1869 65.2002 48.1869C64.9677 48.1869 64.7979 48.3311 64.691 48.6194C64.5887 48.9031 64.5375 49.3402 64.5375 49.9308ZM67.6276 49.9169C67.6276 50.9818 67.4207 51.7839 67.0068 52.3234C66.5929 52.8582 65.9861 53.1256 65.1862 53.1256C64.4189 53.1256 63.826 52.8512 63.4075 52.3025C62.989 51.7491 62.7797 50.9539 62.7797 49.9169C62.7797 47.7917 63.5819 46.7291 65.1862 46.7291C65.9721 46.7291 66.5743 47.0058 66.9929 47.5592C67.416 48.1079 67.6276 48.8938 67.6276 49.9169Z" fill="#10B98F"/>
<circle cx="46" cy="46" r="43" stroke="#EDF9F6" stroke-width="6" stroke-linecap="round"/>
<path d="M46 3.23999C69.7482 3.23999 89 22.4917 89 46.24C89 69.9882 69.7482 89.24 46 89.24" stroke="#10B98F" stroke-width="6" stroke-linecap="round"/>
</svg>
